<?xml version="1.0" standalone="no"?>
<!DOCTYPE svg PUBLIC "-//W3C//DTD SVG 20010904//EN"
 "http://www.w3.org/TR/2001/REC-SVG-20010904/DTD/svg10.dtd">
<svg version="1.0" xmlns="http://www.w3.org/2000/svg"
 width="279.000000pt" height="60.000000pt" viewBox="0 0 279.000000 60.000000"
 preserveAspectRatio="xMidYMid meet">

<g transform="translate(0.000000,60.000000) scale(0.100000,-0.100000)"
fill="#000000" stroke="none">
<path d="M2302 537 c-10 -13 -99 -205 -158 -340 -32 -74 -36 -90 -23 -98 28
-17 38 -8 65 64 15 39 56 137 91 216 34 79 63 147 63 151 0 14 -28 19 -38 7z"/>
<path d="M653 500 c-67 -3 -124 -8 -127 -11 -8 -8 -26 -227 -26 -323 l0 -79
77 7 c42 3 102 6 135 6 l58 0 0 50 0 50 -85 0 c-77 0 -85 2 -85 19 0 26 8 30
79 38 34 3 64 10 67 15 3 5 3 25 -1 45 l-6 36 -65 -6 c-62 -5 -64 -4 -64 19 0
26 4 28 110 41 l65 8 3 39 c2 21 0 41 -5 45 -4 3 -63 4 -130 1z"/>
<path d="M1578 500 c-64 -3 -122 -10 -128 -15 -11 -12 -31 -376 -20 -388 4 -4
65 -4 136 0 l129 8 3 48 3 47 -85 0 c-84 0 -86 1 -86 24 0 22 5 24 68 32 l67
9 3 44 3 44 -65 -5 c-71 -6 -83 0 -66 32 7 14 21 20 44 20 18 0 54 3 80 6 l46
7 0 43 c0 23 -3 44 -7 46 -5 2 -61 1 -125 -2z"/>
<path d="M1947 503 c-2 -5 -19 -55 -37 -113 l-34 -105 -25 108 -24 107 -48 0
-48 0 6 -32 c3 -18 22 -109 42 -203 l36 -170 46 -3 c29 -2 50 2 56 10 10 12
107 319 115 361 2 13 -7 23 -29 32 -28 12 -33 12 -33 0 0 -8 -4 -16 -9 -19 -5
-4 -7 3 -4 14 5 19 -1 28 -10 13z"/>
<path d="M864 489 c-38 -11 -40 -20 -50 -248 l-7 -154 77 5 c66 4 82 9 114 34
57 46 95 130 95 212 1 73 -17 120 -55 146 -25 18 -122 20 -174 5z m122 -104
c29 -44 -6 -164 -52 -182 -15 -6 -37 14 -29 27 2 4 5 41 6 84 1 59 6 79 18 86
26 15 39 12 57 -15z"/>
<path d="M1173 489 c-38 -11 -40 -18 -49 -243 l-7 -159 77 5 c66 4 82 9 114
34 57 46 95 130 95 212 1 73 -17 120 -55 146 -25 18 -122 20 -175 5z m123
-104 c28 -43 -6 -164 -51 -182 -29 -10 -30 -3 -21 165 2 44 47 55 72 17z"/>
<path d="M228 379 c-76 -38 -138 -75 -138 -83 0 -13 21 -23 203 -102 l77 -33
0 23 c0 19 -15 29 -105 66 -58 23 -105 46 -105 50 0 4 47 29 105 56 88 41 105
53 105 72 0 12 -1 22 -2 21 -2 0 -65 -31 -140 -70z"/>
<path d="M2400 430 c0 -16 23 -32 109 -73 61 -29 110 -54 110 -57 1 -3 -49
-25 -109 -50 -94 -38 -110 -48 -110 -67 0 -13 1 -23 3 -23 1 0 63 27 137 60
93 41 136 65 138 77 2 14 -28 33 -133 86 -74 37 -137 67 -140 67 -3 0 -5 -9
-5 -20z"/>
</g>
</svg>
